<svg xmlns="http://www.w3.org/2000/svg" viewBox="0 0 134.53 133.24"><defs><style>.cls-1{fill:#fcc10a;}</style></defs><title>Ativo 1</title><g id="Camada_2" data-name="Camada 2"><g id="Camada_1-2" data-name="Camada 1"><path class="cls-1" d="M56.54,66.72c1.27.84,2.43,1.72,3.7,2.43,6.55,3.71,15.22,1.59,19-4.62A14.2,14.2,0,0,0,74.58,45c-4.67-2.94-9.47-2.79-14.12-.22a13.55,13.55,0,0,0-7.27,12.54q0,21.75,0,43.51,0,15.9,0,31.79c1.12.23,2.24.44,3.38.62C55.71,114.3,55.49,71.25,56.54,66.72Z"/><path class="cls-1" d="M132,67.19c-2.48-.07-5,0-7.17,0-4.66.2-8.89,0-13.3,1.79-3.52,1.46-8.07.44-12.16.52-3.1.07-6.21,0-9.3.26-1.93.17-2.83-.36-2.82-2.32q0-6.89,0-13.78c0-2.18,1-2.58,2.82-1.76.79.35,1.67.5,2.46.84,2.72,1.16,4.42.36,5.44-2.44.76-2.09,1.85-4.06,2.81-6.08,1.41-3,3-5.53.45-9.13-1.62-2.23-1-5.8-.12-8.7s3.09-4.07,6-4.1c3.52,0,7-.08,10.56,0A67.09,67.09,0,0,0,75,0a6.13,6.13,0,0,1,.89,2.12C76.67,5.93,75.88,7,71.9,7c-1.6,0-3.21,0-4.82,0-5.59,0-5.94-.48-4.62-6.34-1.81,1-1.66,2.47-1.8,3.8-.09.84,0,2-1.15,2-1.33,0-1.18-1.35-1.25-2.29a6.22,6.22,0,0,1,1-4.2A67.12,67.12,0,0,0,16.88,22.27c2.74.13,5.51,0,8.27,0,3.69.06,5.82,2.07,6.21,5.63.37,3.31.8,6.75-1.67,9.6-.9,1-.62,2-.12,3.1C31.33,44.3,33.12,48,34.84,51.7c.69,1.49,1.69,2.06,3.27,1.55l1.43-.43c7.11-2.11,7.11-2.11,7.11,5.42v2.6h0c0,2.48,0,5,0,7.45,0,1.27-.33,2.29-1.92,1.94-6.64-1.45-13.36-.46-20-.72-2.25-.09-4.34-.22-6.37-1.55-2.3-1.5-5.09-.64-7.66-.75-2.85-.11-5.71,0-8.56-.08A4.22,4.22,0,0,1,0,66.63v.19a67.29,67.29,0,0,0,48.49,64.61c0-26,.08-52-.08-78.05,0-6.37,2.68-10.75,8-13.58,2.59-1.37,3.46-3.06,3.4-5.88-.15-7.45-.07-14.89,0-22.34,0-1.25-.41-3.24,1.53-3.2s1.4,2,1.41,3.26c.07,6.71,0,13.41.05,20.11,0,1.28-.28,2.64.62,4,1.31-1.32.8-2.75.81-4,.06-6.57.11-13.15,0-19.73,0-2.88,1-4.17,3.94-3.89a11.89,11.89,0,0,0,2.6,0c2.65-.36,3.46.81,3.42,3.38-.12,7.44,0,14.89-.09,22.34,0,2.63.61,4.43,3.12,5.68C83.54,42.65,86,48,86,55c-.12,25.48,0,51,0,76.46a67.29,67.29,0,0,0,48.6-64.64v0A5.47,5.47,0,0,1,132,67.19ZM45,106.69c-1,.39-1.57-.51-2.19-1.07-8.43-7.73-14-16.92-15-28.58-.41-5,.09-5.64,5-5.65,3.22,0,6.45.08,9.66,0,2.4-.08,3.36,1,3.33,3.31,0,5,0,9.91,0,14.87h0c0,4.84,0,9.67,0,14.5C45.76,105,46.12,106.21,45,106.69Zm61-31.53c-.48,12.52-6.08,22.49-15.22,30.7a2.9,2.9,0,0,1-1.9.91c-1.11-.18-.87-1.34-.88-2.15,0-5.08,0-10.15,0-15.23,0-4.82.07-9.65,0-14.48,0-2.56,1-3.56,3.54-3.49,3.59.1,7.18.12,10.77,0C105,71.31,106.07,72.54,106,75.16Z"/><path class="cls-1" d="M105.51,48.9c0,.11-.11.22-.16.33-2.76,5.63-2.76,5.64,3.36,5.84,2,.06,4,.13,5.4,1.9,1,1.26,2.46,1,3.8,1,4.72,0,9.44.14,14.15,0a6.55,6.55,0,0,1,1.91.17,66.84,66.84,0,0,0-8.41-24.87,1.93,1.93,0,0,0,0,.24c-.26,3.52-2.29,6.06-5.69,5.46C111.47,37.48,107.64,41.77,105.51,48.9Z"/><path class="cls-1" d="M2.22,58c3,.09,6,0,8.94,0s6,.4,8.68-2.08c1.65-1.53,4.3-.8,6.51-.85s3-.83,1.89-3C26.45,48.54,24.69,45,23,41.38a3.67,3.67,0,0,0-3.86-2.27c-2,.08-4,0-6,0-3.1-.07-4.92-.82-5.89-2.76A66.64,66.64,0,0,0,.55,58.17,5.16,5.16,0,0,1,2.22,58Z"/></g></g></svg>