<?xml version="1.0" encoding="utf-8"?>
<!-- Generator: Adobe Illustrator 24.0.0, SVG Export Plug-In . SVG Version: 6.00 Build 0)  -->
<svg version="1.1" id="Camada_1" xmlns="http://www.w3.org/2000/svg" xmlns:xlink="http://www.w3.org/1999/xlink" x="0px" y="0px"
	 viewBox="0 0 841.89 595.28" style="enable-background:new 0 0 841.89 595.28;" xml:space="preserve">
<style type="text/css">
	.st0{enable-background:new    ;}
	.st1{fill:#FCC10A;}
</style>
<g class="st0">
	<path d="M308.34,258.43l-11.4,53.29c1.81,1.33,3.61,1.9,5.42,1.9c11.31,0,18.24-22.61,18.24-41.8c0-12.92-5.6-17.96-13.87-17.96
		c-14.16,0-24.89,8.65-24.89,23.08c0,4.85,1.23,5.61,1.33,6.46c-6.27,0-10.17-2.38-10.17-8.83c0-13.01,16.06-25.08,35.34-25.08
		c18.43,0,25.37,12.83,25.37,27.36c0,21.85-12.26,45.13-26.32,45.13c-3.61,0-7.5-1.52-11.59-5.04l-0.76,3.8h-13.68l12.92-60.42
		L308.34,258.43z"/>
	<path d="M355.55,273.25l-1.23,5.89c3.33-2.85,6.94-5.89,11.5-5.89c4.27,0,6.56,3.52,6.56,7.13c0,3.33-2.19,6.94-6.84,6.94
		c-5.32,0-2.66-6.27-5.51-6.27s-4.56,1.43-6.94,3.61l-7.6,36.1H331.8l10.07-47.5H355.55z"/>
	<path d="M391.27,273.25l-6.84,32.3c-0.29,1.24-0.38,2.18-0.38,3.04c0,2.66,1.24,3.51,3.9,3.51c3.71,0,7.13-3.61,8.55-8.36h3.99
		c-5.42,15.49-14.82,17.58-19.95,17.58c-5.7,0-10.17-3.42-10.17-11.4c0-1.8,0.28-3.9,0.76-6.17l6.46-30.5H391.27z M386.99,253.02
		c4.18,0,7.6,3.42,7.6,7.6s-3.42,7.5-7.6,7.5s-7.5-3.33-7.5-7.5S382.81,253.02,386.99,253.02z"/>
	<path d="M420.43,281.52c-3.42,0-5.99,3.99-7.41,8.74l-6.46,30.49h-13.68l10.07-47.5h13.68l-1.04,4.94
		c3.99-4.56,8.17-5.32,11.12-5.32c6.08,0,10.54,3.14,10.54,10.74c0,7.7-4.56,19.19-4.56,24.51c0,2.38,0.95,3.99,3.8,3.99
		c4.18,0,5.89-3.42,7.98-8.36h3.99c-5.32,15.58-12.64,17.58-17.67,17.58c-8.26,0-11.21-5.32-11.21-10.74
		c0-6.46,4.27-18.15,4.27-24.23C423.85,283.23,422.71,281.52,420.43,281.52z"/>
	<path d="M489.3,273.25l-19,13.21c1.04-0.19,2.09-0.38,3.14-0.38c7.03,0,10.45,5.04,10.45,11.12c0,1.14-0.09,2.37-0.38,3.61
		l-1.04,4.75c-0.19,0.95-0.48,2-0.48,3.04c0,1.9,0.76,3.51,3.71,3.51c4.18,0,5.89-3.42,7.98-8.36h3.99
		c-5.42,15.96-13.11,17.58-17.48,17.58c-7.79,0-11.97-3.9-11.97-10.83c0-1.52,0.19-3.14,0.57-4.94l0.76-3.71
		c0.28-1.24,0.38-2.47,0.38-3.51c0-2.76-0.95-4.56-3.42-4.56c-2.19,0-4.37,1.33-7.03,3.52l-4.94,23.46h-13.68l13.78-64.6l14.06-1.9
		l-7.13,33.44l18.33-14.44H489.3z"/>
	<path d="M513.33,313.34c7.51,0,12.07-4.18,16.82-9.59h3.23c-5.42,8.74-13.49,17.58-26.13,17.58c-8.93,0-14.82-4.37-14.82-15.11
		c0-10.92,6.17-33.82,25.65-33.82c8.46,0,10.45,4.37,10.45,9.12c0,10.92-10.45,19.38-21.85,20.04c-0.09,1.33-0.19,2.66-0.19,3.8
		C506.49,311.82,508.77,313.34,513.33,313.34z M518.84,277.43c-4.84,0-9.5,10.17-11.4,19.57c7.31-0.48,13.77-7.79,13.77-15.68
		C521.22,278.95,520.65,277.43,518.84,277.43z"/>
	<path d="M554.37,254.25l-10.92,51.3c-0.29,1.24-0.38,2.18-0.38,3.04c0,2.66,1.24,3.51,3.9,3.51c3.71,0,7.13-3.61,8.55-8.36h3.99
		c-5.42,15.49-14.82,17.58-19.95,17.58c-5.7,0-10.17-3.42-10.17-11.4c0-1.8,0.29-3.9,0.76-6.17l10.17-47.6L554.37,254.25z"/>
	<path d="M575.65,273.25l-6.84,32.3c-0.29,1.24-0.38,2.18-0.38,3.04c0,2.66,1.24,3.51,3.9,3.51c3.71,0,7.13-3.61,8.55-8.36h3.99
		c-5.42,15.49-14.82,17.58-19.95,17.58c-5.7,0-10.17-3.42-10.17-11.4c0-1.8,0.29-3.9,0.76-6.17l6.46-30.5H575.65z M571.37,253.02
		c4.18,0,7.6,3.42,7.6,7.6s-3.42,7.5-7.6,7.5s-7.5-3.33-7.5-7.5S567.19,253.02,571.37,253.02z"/>
	<path d="M618.78,279.62c0,15.2-7.69,41.71-27.08,41.71c-7.22,0-11.69-3.71-11.69-11.21c0-1.04,0.1-2.75,0.48-4.56l6.84-32.3h13.68
		l-6.84,32.3c-0.29,1.33-0.48,2.57-0.48,3.42c0,1.9,0.95,3.13,3.23,3.13c9.31,0,16.44-21.28,16.44-31.73
		c-0.29,0.67-2.28,0.95-3.04,0.95c-2.28,0-3.42-2.75-3.42-4.84c0-2.95,1.9-5.13,5.89-5.13
		C617.35,271.35,618.78,275.44,618.78,279.62z"/>
	<path d="M639.86,313.34c7.5,0,12.06-4.18,16.81-9.59h3.23c-5.42,8.74-13.49,17.58-26.13,17.58c-8.93,0-14.82-4.37-14.82-15.11
		c0-10.92,6.17-33.82,25.65-33.82c8.46,0,10.45,4.37,10.45,9.12c0,10.92-10.45,19.38-21.85,20.04c-0.09,1.33-0.19,2.66-0.19,3.8
		C633.02,311.82,635.3,313.34,639.86,313.34z M645.37,277.43c-4.85,0-9.5,10.17-11.4,19.57c7.32-0.48,13.78-7.79,13.78-15.68
		C647.75,278.95,647.18,277.43,645.37,277.43z"/>
	<path d="M676.81,273.25l-1.23,5.89c3.32-2.85,6.93-5.89,11.49-5.89c4.28,0,6.56,3.52,6.56,7.13c0,3.33-2.18,6.94-6.84,6.94
		c-5.32,0-2.66-6.27-5.51-6.27c-2.85,0-4.56,1.43-6.93,3.61l-7.6,36.1h-13.68l10.07-47.5H676.81z"/>
	<path d="M712.53,273.25l-6.84,32.3c-0.19,0.76-0.28,1.62-0.28,2.38c0,2.18,0.66,4.18,2.85,4.18c3.71,0,6.17-3.61,7.6-8.36
		l6.46-30.5h13.77l-11.59,55.1c-2.85,13.59-11.02,16.15-17.29,16.15c-5.79,0-11.21-4.08-11.21-10.26c0-8.83,7.41-11.59,16.43-14.25
		l0.95-4.18c-4.08,4.66-8.36,5.51-11.59,5.51c-5.7,0-10.17-3.42-10.17-11.4c0-1.8,0.28-3.9,0.76-6.17l6.46-30.5H712.53z
		 M705.03,336.05c1.9,0,4.37-1.8,5.61-7.41l1.14-5.6c-5.98,2-10.54,4.75-10.54,9.88C701.23,334.24,702.94,336.05,705.03,336.05z"/>
</g>
<g class="st0">
	<path d="M283.54,340.7c0,0.75-0.25,1.34-0.75,1.76s-1.2,0.63-2.09,0.63c-0.37,0-0.73-0.04-1.06-0.12
		c-0.33-0.08-0.62-0.21-0.86-0.37v-1.78c0.29,0.18,0.61,0.33,0.98,0.45s0.7,0.18,1,0.18c0.25,0,0.44-0.05,0.57-0.16
		c0.13-0.11,0.19-0.25,0.19-0.45c0-0.09-0.02-0.18-0.06-0.26c-0.04-0.08-0.1-0.16-0.17-0.24s-0.28-0.26-0.6-0.53
		c-0.4-0.32-0.69-0.65-0.87-0.98s-0.27-0.7-0.27-1.1c0-0.45,0.11-0.85,0.33-1.2c0.22-0.35,0.54-0.63,0.94-0.83
		c0.41-0.2,0.86-0.29,1.36-0.29c0.81,0,1.54,0.18,2.19,0.54l-0.69,1.51c-0.58-0.3-1.08-0.45-1.48-0.45c-0.22,0-0.38,0.05-0.5,0.14
		c-0.12,0.1-0.18,0.23-0.18,0.42c0,0.17,0.06,0.32,0.17,0.47s0.33,0.34,0.65,0.58c0.4,0.3,0.7,0.61,0.89,0.93
		C283.44,339.9,283.54,340.28,283.54,340.7z"/>
	<path d="M294.66,335.54l-1.01,4.75c-0.2,0.96-0.58,1.66-1.15,2.12s-1.33,0.69-2.3,0.69c-0.46,0-0.86-0.09-1.21-0.28
		c-0.35-0.19-0.62-0.45-0.81-0.78c-0.19-0.34-0.28-0.71-0.28-1.13c0-0.22,0.02-0.44,0.06-0.66l1.01-4.71h1.99l-0.99,4.65
		c-0.05,0.23-0.07,0.43-0.07,0.59c0,0.43,0.21,0.65,0.62,0.65c0.32,0,0.57-0.11,0.75-0.33s0.32-0.55,0.42-1.01l0.97-4.55H294.66z"/>
	<path d="M301.96,341.59h-2.28l-0.64,1.4h-2.07l3.79-7.45h2.56l0.63,7.45h-1.94L301.96,341.59z M300.41,340h1.49l-0.09-2.16
		l-0.01-0.44c0-0.25,0.01-0.48,0.02-0.67c-0.08,0.29-0.19,0.57-0.31,0.85L300.41,340z"/>
	<path d="M315.09,335.54h2.48c0.74,0,1.3,0.14,1.68,0.42c0.38,0.28,0.57,0.68,0.57,1.21c0,0.98-0.5,1.62-1.51,1.92v0.04
		c0.3,0.1,0.54,0.27,0.71,0.52c0.18,0.25,0.27,0.55,0.27,0.9c0,0.78-0.26,1.38-0.78,1.8s-1.25,0.64-2.2,0.64h-2.79L315.09,335.54z
		 M316.17,339.87l-0.34,1.56h0.42c0.29,0,0.54-0.08,0.73-0.25s0.29-0.37,0.29-0.62c0-0.23-0.06-0.41-0.17-0.53
		c-0.11-0.12-0.31-0.17-0.59-0.17H316.17z M316.47,338.4h0.37c0.3,0,0.52-0.06,0.68-0.19s0.23-0.34,0.23-0.62
		c0-0.35-0.22-0.52-0.65-0.52h-0.32L316.47,338.4z"/>
	<path d="M327.55,342.99h-4.42l1.58-7.45h4.42l-0.33,1.62h-2.43l-0.24,1.17h2.26l-0.37,1.62h-2.26l-0.29,1.41h2.43L327.55,342.99z"
		/>
	<path d="M333.56,335.54h2.48c0.74,0,1.3,0.14,1.68,0.42c0.38,0.28,0.57,0.68,0.57,1.21c0,0.98-0.5,1.62-1.51,1.92v0.04
		c0.3,0.1,0.54,0.27,0.71,0.52c0.18,0.25,0.27,0.55,0.27,0.9c0,0.78-0.26,1.38-0.78,1.8s-1.25,0.64-2.2,0.64h-2.79L333.56,335.54z
		 M334.65,339.87l-0.34,1.56h0.42c0.29,0,0.54-0.08,0.73-0.25s0.29-0.37,0.29-0.62c0-0.23-0.06-0.41-0.17-0.53
		c-0.11-0.12-0.31-0.17-0.59-0.17H334.65z M334.95,338.4h0.37c0.3,0,0.52-0.06,0.68-0.19s0.23-0.34,0.23-0.62
		c0-0.35-0.22-0.52-0.65-0.52h-0.32L334.95,338.4z"/>
	<path d="M341.59,342.99l1.57-7.45h2.02l-1.57,7.45H341.59z"/>
	<path d="M354.95,338.36c0,0.95-0.17,1.78-0.5,2.47s-0.82,1.23-1.47,1.6s-1.4,0.56-2.28,0.56h-2.4l1.58-7.45H352
		c0.94,0,1.66,0.25,2.18,0.74C354.69,336.76,354.95,337.46,354.95,338.36z M351,341.34c0.37,0,0.71-0.12,1-0.36
		c0.29-0.24,0.52-0.58,0.69-1.02c0.16-0.44,0.24-0.94,0.24-1.51c0-0.42-0.09-0.75-0.28-0.97c-0.18-0.22-0.44-0.33-0.77-0.33h-0.36
		l-0.88,4.17H351z"/>
	<path d="M362.64,341.59h-2.28l-0.64,1.4h-2.07l3.79-7.45h2.56l0.63,7.45h-1.94L362.64,341.59z M361.09,340h1.49l-0.09-2.16
		l-0.01-0.44c0-0.25,0.01-0.48,0.02-0.67c-0.08,0.29-0.19,0.57-0.31,0.85L361.09,340z"/>
	<path d="M376.19,342.99h-1.99l1.58-7.45h4.39l-0.34,1.62h-2.4l-0.3,1.42h2.22L379,340.2h-2.23L376.19,342.99z"/>
	<path d="M387.33,341.59h-2.28l-0.64,1.4h-2.07l3.79-7.45h2.56l0.63,7.45h-1.94L387.33,341.59z M385.78,340h1.49l-0.09-2.16
		l-0.01-0.44c0-0.25,0.01-0.48,0.02-0.67c-0.08,0.29-0.19,0.57-0.31,0.85L385.78,340z"/>
	<path d="M398.11,335.54h2.11l-3.7,7.45h-2.22l-0.53-7.45h1.95l0.14,4.08v0.26c0,0.49-0.03,0.92-0.08,1.3h0.04
		c0.05-0.22,0.12-0.48,0.23-0.8c0.1-0.32,0.2-0.56,0.28-0.74L398.11,335.54z"/>
	<path d="M407.02,335.42c0.88,0,1.57,0.25,2.06,0.76c0.49,0.5,0.74,1.21,0.74,2.11c0,0.9-0.17,1.73-0.51,2.48
		c-0.34,0.75-0.8,1.32-1.4,1.72s-1.28,0.6-2.07,0.6c-0.91,0-1.62-0.25-2.12-0.76c-0.5-0.51-0.75-1.21-0.75-2.11s0.17-1.73,0.52-2.48
		c0.35-0.75,0.83-1.33,1.43-1.73C405.54,335.62,406.23,335.42,407.02,335.42z M407.81,338.31c0-0.39-0.08-0.69-0.24-0.91
		s-0.4-0.33-0.71-0.33c-0.34,0-0.65,0.14-0.93,0.43s-0.51,0.68-0.68,1.18c-0.17,0.5-0.25,1.01-0.25,1.53c0,0.82,0.34,1.23,1.02,1.23
		c0.32,0,0.62-0.14,0.9-0.42c0.28-0.28,0.49-0.66,0.65-1.14C407.73,339.4,407.81,338.88,407.81,338.31z"/>
	<path d="M415.87,340.28l-0.58,2.71h-1.99l1.58-7.45h1.97c0.86,0,1.51,0.17,1.97,0.51c0.46,0.34,0.68,0.85,0.68,1.53
		c0,0.53-0.12,0.99-0.36,1.39c-0.24,0.39-0.6,0.7-1.08,0.9l1.14,2.63l0.2,0.49h-2.17l-0.99-2.71H415.87z M416.19,338.76h0.26
		c0.32,0,0.58-0.09,0.77-0.28c0.19-0.19,0.29-0.44,0.29-0.78c0-0.21-0.06-0.37-0.18-0.48s-0.29-0.17-0.51-0.17h-0.27L416.19,338.76z
		"/>
	<path d="M423.07,342.99l1.57-7.45h2.02l-1.57,7.45H423.07z"/>
	<path d="M432.81,342.99h-1.99l1.21-5.81h-1.62l0.35-1.65H436l-0.36,1.65h-1.62L432.81,342.99z"/>
	<path d="M442.75,341.59h-2.28l-0.64,1.4h-2.07l3.79-7.45h2.56l0.63,7.45h-1.94L442.75,341.59z M441.19,340h1.49l-0.09-2.16
		l-0.01-0.44c0-0.25,0.01-0.48,0.02-0.67c-0.08,0.29-0.19,0.57-0.31,0.85L441.19,340z"/>
	<path d="M460.85,342.99h-2.32l-1.47-5.24h-0.04c-0.1,0.99-0.2,1.7-0.29,2.13l-0.66,3.11h-1.77l1.58-7.45h2.32l1.46,5.01h0.05
		c0.1-0.8,0.2-1.43,0.29-1.89l0.67-3.12h1.77L460.85,342.99z"/>
	<path d="M469.94,335.42c0.88,0,1.57,0.25,2.06,0.76c0.49,0.5,0.74,1.21,0.74,2.11c0,0.9-0.17,1.73-0.51,2.48
		c-0.34,0.75-0.8,1.32-1.4,1.72s-1.28,0.6-2.07,0.6c-0.91,0-1.62-0.25-2.12-0.76c-0.5-0.51-0.75-1.21-0.75-2.11s0.17-1.73,0.52-2.48
		c0.35-0.75,0.83-1.33,1.43-1.73C468.46,335.62,469.16,335.42,469.94,335.42z M470.73,338.31c0-0.39-0.08-0.69-0.24-0.91
		s-0.4-0.33-0.71-0.33c-0.34,0-0.65,0.14-0.93,0.43s-0.51,0.68-0.67,1.18c-0.17,0.5-0.25,1.01-0.25,1.53c0,0.82,0.34,1.23,1.02,1.23
		c0.32,0,0.62-0.14,0.9-0.42c0.28-0.28,0.5-0.66,0.65-1.14C470.65,339.4,470.73,338.88,470.73,338.31z"/>
	<path d="M486.26,337.08c-0.37,0-0.7,0.13-0.99,0.4c-0.3,0.26-0.53,0.63-0.7,1.1s-0.25,0.97-0.25,1.51c0,0.46,0.09,0.79,0.29,1.02
		s0.46,0.34,0.82,0.34c0.28,0,0.57-0.04,0.86-0.1c0.29-0.07,0.63-0.19,1.02-0.35v1.65c-0.69,0.31-1.44,0.46-2.24,0.46
		c-0.88,0-1.56-0.25-2.04-0.76c-0.48-0.5-0.72-1.22-0.72-2.14c0-0.9,0.17-1.73,0.52-2.49c0.34-0.75,0.81-1.32,1.41-1.71
		s1.27-0.58,2.04-0.58c0.9,0,1.72,0.22,2.45,0.67l-0.75,1.55c-0.32-0.19-0.61-0.33-0.87-0.42
		C486.82,337.13,486.54,337.08,486.26,337.08z"/>
	<path d="M495.91,335.42c0.88,0,1.57,0.25,2.06,0.76c0.49,0.5,0.74,1.21,0.74,2.11c0,0.9-0.17,1.73-0.51,2.48
		c-0.34,0.75-0.8,1.32-1.4,1.72s-1.28,0.6-2.07,0.6c-0.91,0-1.62-0.25-2.12-0.76c-0.5-0.51-0.75-1.21-0.75-2.11s0.17-1.73,0.52-2.48
		c0.35-0.75,0.83-1.33,1.43-1.73C494.43,335.62,495.12,335.42,495.91,335.42z M496.7,338.31c0-0.39-0.08-0.69-0.24-0.91
		s-0.4-0.33-0.71-0.33c-0.34,0-0.65,0.14-0.93,0.43s-0.51,0.68-0.67,1.18c-0.17,0.5-0.25,1.01-0.25,1.53c0,0.82,0.34,1.23,1.02,1.23
		c0.32,0,0.62-0.14,0.9-0.42c0.28-0.28,0.5-0.66,0.65-1.14C496.62,339.4,496.7,338.88,496.7,338.31z"/>
	<path d="M508.75,342.99h-2.32l-1.47-5.24h-0.04c-0.1,0.99-0.2,1.7-0.29,2.13l-0.66,3.11h-1.77l1.58-7.45h2.32l1.46,5.01h0.05
		c0.1-0.8,0.2-1.43,0.29-1.89l0.67-3.12h1.77L508.75,342.99z"/>
	<path d="M515.43,342.99h-1.99l1.58-7.45h4.39l-0.34,1.62h-2.4l-0.3,1.42h2.22l-0.35,1.63h-2.23L515.43,342.99z"/>
	<path d="M526.77,335.42c0.88,0,1.57,0.25,2.06,0.76c0.49,0.5,0.74,1.21,0.74,2.11c0,0.9-0.17,1.73-0.51,2.48s-0.8,1.32-1.4,1.72
		s-1.28,0.6-2.07,0.6c-0.91,0-1.62-0.25-2.12-0.76c-0.5-0.51-0.75-1.21-0.75-2.11s0.17-1.73,0.53-2.48
		c0.35-0.75,0.83-1.33,1.43-1.73C525.29,335.62,525.99,335.42,526.77,335.42z M527.56,338.31c0-0.39-0.08-0.69-0.25-0.91
		s-0.4-0.33-0.71-0.33c-0.34,0-0.65,0.14-0.93,0.43s-0.51,0.68-0.68,1.18c-0.17,0.5-0.25,1.01-0.25,1.53c0,0.82,0.34,1.23,1.02,1.23
		c0.32,0,0.62-0.14,0.9-0.42c0.28-0.28,0.49-0.66,0.65-1.14C527.48,339.4,527.56,338.88,527.56,338.31z"/>
	<path d="M535.63,340.28l-0.58,2.71h-1.99l1.58-7.45h1.97c0.86,0,1.51,0.17,1.97,0.51s0.68,0.85,0.68,1.53
		c0,0.53-0.12,0.99-0.36,1.39s-0.6,0.7-1.08,0.9l1.14,2.63l0.2,0.49h-2.17l-0.99-2.71H535.63z M535.95,338.76h0.26
		c0.32,0,0.58-0.09,0.77-0.28c0.19-0.19,0.29-0.44,0.29-0.78c0-0.21-0.06-0.37-0.18-0.48s-0.29-0.17-0.51-0.17h-0.27L535.95,338.76z
		"/>
	<path d="M545.87,342.99h-1.99l1.21-5.81h-1.62l0.35-1.65h5.24l-0.36,1.65h-1.62L545.87,342.99z"/>
	<path d="M556,335.42c0.88,0,1.57,0.25,2.06,0.76c0.49,0.5,0.74,1.21,0.74,2.11c0,0.9-0.17,1.73-0.51,2.48s-0.8,1.32-1.4,1.72
		s-1.28,0.6-2.07,0.6c-0.91,0-1.62-0.25-2.12-0.76c-0.5-0.51-0.75-1.21-0.75-2.11s0.17-1.73,0.53-2.48
		c0.35-0.75,0.83-1.33,1.43-1.73C554.51,335.62,555.21,335.42,556,335.42z M556.78,338.31c0-0.39-0.08-0.69-0.25-0.91
		s-0.4-0.33-0.71-0.33c-0.34,0-0.65,0.14-0.93,0.43s-0.51,0.68-0.68,1.18c-0.17,0.5-0.25,1.01-0.25,1.53c0,0.82,0.34,1.23,1.02,1.23
		c0.32,0,0.62-0.14,0.9-0.42c0.28-0.28,0.49-0.66,0.65-1.14C556.7,339.4,556.78,338.88,556.78,338.31z"/>
	<path d="M574.63,338.36c0,0.95-0.17,1.78-0.5,2.47c-0.34,0.7-0.83,1.23-1.47,1.6s-1.4,0.56-2.28,0.56h-2.4l1.58-7.45h2.12
		c0.94,0,1.67,0.25,2.18,0.74C574.38,336.76,574.63,337.46,574.63,338.36z M570.69,341.34c0.37,0,0.71-0.12,1-0.36
		c0.29-0.24,0.52-0.58,0.69-1.02c0.16-0.44,0.25-0.94,0.25-1.51c0-0.42-0.09-0.75-0.28-0.97s-0.44-0.33-0.77-0.33h-0.36l-0.88,4.17
		H570.69z"/>
	<path d="M582.55,342.99h-4.42l1.58-7.45h4.42l-0.33,1.62h-2.43l-0.24,1.17h2.26l-0.37,1.62h-2.26l-0.29,1.41h2.43L582.55,342.99z"
		/>
	<path d="M597.51,340.7c0,0.75-0.25,1.34-0.75,1.76c-0.5,0.42-1.2,0.63-2.09,0.63c-0.37,0-0.73-0.04-1.06-0.12
		c-0.33-0.08-0.62-0.21-0.86-0.37v-1.78c0.29,0.18,0.61,0.33,0.98,0.45c0.37,0.12,0.7,0.18,1,0.18c0.25,0,0.44-0.05,0.57-0.16
		s0.19-0.25,0.19-0.45c0-0.09-0.02-0.18-0.06-0.26c-0.04-0.08-0.1-0.16-0.17-0.24c-0.07-0.08-0.28-0.26-0.6-0.53
		c-0.4-0.32-0.69-0.65-0.87-0.98c-0.18-0.33-0.27-0.7-0.27-1.1c0-0.45,0.11-0.85,0.33-1.2c0.22-0.35,0.54-0.63,0.94-0.83
		s0.86-0.29,1.36-0.29c0.81,0,1.54,0.18,2.19,0.54l-0.69,1.51c-0.58-0.3-1.08-0.45-1.48-0.45c-0.22,0-0.38,0.05-0.5,0.14
		c-0.12,0.1-0.18,0.23-0.18,0.42c0,0.17,0.06,0.32,0.17,0.47c0.11,0.14,0.33,0.34,0.65,0.58c0.4,0.3,0.7,0.61,0.89,0.93
		C597.41,339.9,597.51,340.28,597.51,340.7z"/>
	<path d="M608.63,335.54l-1.01,4.75c-0.2,0.96-0.58,1.66-1.15,2.12c-0.56,0.46-1.33,0.69-2.3,0.69c-0.46,0-0.86-0.09-1.21-0.28
		c-0.35-0.19-0.62-0.45-0.8-0.78c-0.19-0.34-0.28-0.71-0.28-1.13c0-0.22,0.02-0.44,0.06-0.66l1.01-4.71h1.99l-0.99,4.65
		c-0.05,0.23-0.07,0.43-0.07,0.59c0,0.43,0.21,0.65,0.62,0.65c0.32,0,0.57-0.11,0.75-0.33s0.32-0.55,0.42-1.01l0.97-4.55H608.63z"/>
	<path d="M615.93,341.59h-2.28l-0.64,1.4h-2.07l3.79-7.45h2.56l0.63,7.45h-1.94L615.93,341.59z M614.38,340h1.49l-0.09-2.16
		l-0.01-0.44c0-0.25,0.01-0.48,0.02-0.67c-0.08,0.29-0.18,0.57-0.31,0.85L614.38,340z"/>
	<path d="M631.8,337.08c-0.37,0-0.7,0.13-0.99,0.4c-0.3,0.26-0.53,0.63-0.7,1.1s-0.25,0.97-0.25,1.51c0,0.46,0.09,0.79,0.29,1.02
		s0.46,0.34,0.82,0.34c0.28,0,0.57-0.04,0.86-0.1c0.29-0.07,0.63-0.19,1.02-0.35v1.65c-0.69,0.31-1.44,0.46-2.24,0.46
		c-0.88,0-1.56-0.25-2.04-0.76c-0.48-0.5-0.72-1.22-0.72-2.14c0-0.9,0.17-1.73,0.52-2.49c0.34-0.75,0.81-1.32,1.41-1.71
		s1.27-0.58,2.04-0.58c0.9,0,1.72,0.22,2.45,0.67l-0.75,1.55c-0.32-0.19-0.61-0.33-0.87-0.42
		C632.37,337.13,632.09,337.08,631.8,337.08z"/>
	<path d="M641.26,341.59h-2.28l-0.64,1.4h-2.07l3.79-7.45h2.56l0.63,7.45h-1.94L641.26,341.59z M639.7,340h1.49l-0.09-2.16
		l-0.01-0.44c0-0.25,0.01-0.48,0.02-0.67c-0.08,0.29-0.19,0.57-0.31,0.85L639.7,340z"/>
	<path d="M651.92,340.7c0,0.75-0.25,1.34-0.75,1.76c-0.5,0.42-1.2,0.63-2.09,0.63c-0.37,0-0.73-0.04-1.06-0.12
		c-0.33-0.08-0.62-0.21-0.86-0.37v-1.78c0.29,0.18,0.61,0.33,0.98,0.45c0.37,0.12,0.7,0.18,1,0.18c0.25,0,0.44-0.05,0.57-0.16
		c0.13-0.11,0.19-0.25,0.19-0.45c0-0.09-0.02-0.18-0.06-0.26c-0.04-0.08-0.1-0.16-0.17-0.24c-0.08-0.08-0.28-0.26-0.6-0.53
		c-0.4-0.32-0.69-0.65-0.87-0.98c-0.18-0.33-0.27-0.7-0.27-1.1c0-0.45,0.11-0.85,0.33-1.2c0.22-0.35,0.54-0.63,0.94-0.83
		c0.41-0.2,0.86-0.29,1.36-0.29c0.81,0,1.54,0.18,2.19,0.54l-0.69,1.51c-0.58-0.3-1.08-0.45-1.48-0.45c-0.22,0-0.38,0.05-0.5,0.14
		c-0.12,0.1-0.18,0.23-0.18,0.42c0,0.17,0.06,0.32,0.17,0.47c0.11,0.14,0.33,0.34,0.65,0.58c0.4,0.3,0.7,0.61,0.89,0.93
		S651.92,340.28,651.92,340.7z"/>
	<path d="M660.02,341.59h-2.28l-0.64,1.4h-2.07l3.79-7.45h2.56l0.63,7.45h-1.94L660.02,341.59z M658.47,340h1.49l-0.09-2.16
		l-0.01-0.44c0-0.25,0.01-0.48,0.02-0.67c-0.08,0.29-0.19,0.57-0.31,0.85L658.47,340z"/>
</g>
<g>
	<path class="st1" d="M173.33,291.31c1.26,0.84,2.43,1.72,3.69,2.43c6.55,3.71,15.23,1.58,19-4.62c4.1-6.74,2.05-15.3-4.66-19.53
		c-4.67-2.94-9.46-2.8-14.11-0.22c-4.83,2.67-7.26,7-7.27,12.54c-0.03,14.5,0.01,29.01,0.01,43.51c0.01,10.6,0.01,21.19,0.01,31.79
		c1.11,0.24,2.24,0.45,3.37,0.63C172.5,338.89,172.28,295.84,173.33,291.31z"/>
	<path class="st1" d="M248.81,291.78c-2.48-0.08-4.96-0.02-7.16-0.02c-4.67,0.2-8.89-0.03-13.3,1.8c-3.52,1.46-8.07,0.43-12.16,0.52
		c-3.1,0.06-6.21-0.01-9.3,0.26c-1.93,0.17-2.83-0.36-2.83-2.32c0.01-4.59,0.01-9.19-0.02-13.78c-0.02-2.18,0.96-2.59,2.82-1.76
		c0.79,0.35,1.67,0.5,2.46,0.84c2.72,1.16,4.42,0.36,5.44-2.44c0.76-2.09,1.85-4.06,2.81-6.08c1.41-2.96,3.05-5.53,0.45-9.12
		c-1.62-2.24-0.95-5.8-0.13-8.7c0.82-2.89,3.09-4.07,5.97-4.11c3.52-0.04,7.04-0.08,10.57-0.02
		c-10.73-12.11-25.75-20.33-42.69-22.26c0.4,0.58,0.71,1.27,0.89,2.12c0.83,3.81,0.04,4.87-3.94,4.92
		c-1.61,0.02-3.22,0.02-4.83,0.01c-5.59-0.02-5.94-0.48-4.62-6.34c-1.81,1.03-1.66,2.46-1.8,3.8c-0.09,0.84-0.05,2.04-1.15,2.01
		c-1.33-0.03-1.18-1.35-1.25-2.29c-0.13-1.67,0.24-3.11,1.03-4.2c-16.83,1.99-31.75,10.19-42.41,22.24
		c2.75,0.13,5.52-0.04,8.27,0.01c3.69,0.06,5.83,2.07,6.22,5.63c0.36,3.31,0.8,6.75-1.67,9.59c-0.9,1.04-0.62,2.04-0.12,3.1
		c1.76,3.7,3.55,7.38,5.27,11.1c0.69,1.49,1.69,2.06,3.27,1.55c0.47-0.15,0.95-0.29,1.43-0.43c7.11-2.11,7.11-2.11,7.11,5.41
		c0,0.87,0,1.74,0,2.61c-0.01,0-0.01,0-0.02,0c0,2.48,0.01,4.96,0,7.45c0,1.27-0.33,2.29-1.92,1.94
		c-6.64-1.45-13.36-0.47-20.04-0.72c-2.25-0.09-4.34-0.22-6.37-1.55c-2.3-1.5-5.08-0.64-7.66-0.75c-2.85-0.12-5.71-0.04-8.56-0.09
		c-0.9-0.02-1.57-0.2-2.08-0.5c0,0.07,0,0.13,0,0.19c0,30.63,20.48,56.48,48.49,64.61c0-26.02,0.08-52.03-0.08-78.05
		c-0.04-6.37,2.67-10.75,7.99-13.58c2.59-1.38,3.46-3.07,3.4-5.88c-0.15-7.44-0.08-14.89-0.02-22.34c0.01-1.25-0.42-3.24,1.53-3.2
		c1.93,0.04,1.4,2.04,1.41,3.27c0.07,6.7,0.02,13.41,0.05,20.11c0.01,1.27-0.28,2.64,0.62,3.98c1.31-1.33,0.8-2.75,0.81-4.01
		c0.06-6.58,0.11-13.16,0-19.74c-0.05-2.88,1.05-4.17,3.95-3.89c0.86,0.08,1.75,0.09,2.6-0.03c2.65-0.36,3.46,0.82,3.41,3.38
		c-0.12,7.45,0.04,14.9-0.09,22.34c-0.05,2.63,0.61,4.43,3.11,5.68c6.35,3.17,8.81,8.49,8.77,15.52
		c-0.12,25.49-0.04,50.98-0.04,76.47c28.07-8.09,48.6-33.97,48.6-64.64c0-0.01,0-0.02,0-0.03
		C250.67,291.68,249.84,291.82,248.81,291.78z M161.74,331.28c-0.95,0.39-1.57-0.51-2.19-1.08c-8.43-7.72-14.04-16.92-14.99-28.58
		c-0.41-5.03,0.09-5.63,5.03-5.65c3.22-0.01,6.45,0.08,9.67-0.02c2.4-0.07,3.36,0.97,3.33,3.31c-0.06,4.96-0.02,9.92-0.02,14.87
		h0.01c0,4.83,0.02,9.67-0.02,14.5C162.55,329.58,162.91,330.81,161.74,331.28z M222.76,299.75c-0.48,12.51-6.08,22.49-15.22,30.7
		c-0.52,0.46-1.32,1-1.9,0.91c-1.12-0.18-0.88-1.34-0.88-2.15c-0.03-5.08-0.02-10.15-0.02-15.23c0-4.83,0.07-9.66-0.03-14.48
		c-0.05-2.56,1.02-3.56,3.54-3.49c3.59,0.1,7.18,0.12,10.77-0.01C221.76,295.9,222.86,297.13,222.76,299.75z"/>
	<path class="st1" d="M222.3,273.49c-0.04,0.12-0.1,0.23-0.16,0.34c-2.76,5.63-2.76,5.64,3.36,5.84c2.01,0.07,3.99,0.13,5.4,1.9
		c1,1.26,2.46,0.99,3.8,1c4.72,0.03,9.44,0.14,14.15-0.03c0.74-0.03,1.37,0.03,1.91,0.17c-1.16-8.96-4.08-17.37-8.41-24.87
		c-0.01,0.08-0.01,0.16-0.01,0.24c-0.26,3.52-2.28,6.05-5.69,5.46C228.26,262.07,224.43,266.36,222.3,273.49z"/>
	<path class="st1" d="M119.01,282.56c2.98,0.09,5.96,0.03,8.94,0c3.04-0.03,6.03,0.39,8.68-2.08c1.64-1.53,4.3-0.8,6.51-0.85
		c2.26-0.05,2.96-0.83,1.89-2.96c-1.79-3.55-3.54-7.11-5.24-10.7c-0.8-1.69-2.04-2.34-3.86-2.27c-1.98,0.07-3.97,0.04-5.96-0.01
		c-3.11-0.06-4.93-0.82-5.9-2.76c-3.41,6.7-5.74,14.05-6.73,21.82C117.8,282.62,118.35,282.54,119.01,282.56z"/>
</g>
</svg>
